<?xml version="1.0" encoding="utf-8"?>
<!-- Generator: Adobe Illustrator 27.5.0, SVG Export Plug-In . SVG Version: 6.00 Build 0)  -->
<svg version="1.1" id="Layer_1" xmlns="http://www.w3.org/2000/svg" xmlns:xlink="http://www.w3.org/1999/xlink" x="0px" y="0px"
	 viewBox="0 0 600 600" style="enable-background:new 0 0 600 600;" xml:space="preserve">
<style type="text/css">
	.st0{fill:#F21111;}
</style>
<path class="st0" d="M303.48,501.31c-53.16,0-106.31,0.1-159.47-0.09c-9.78-0.04-19.74-0.35-29.31-2.15
	c-29.46-5.52-45.64-41.96-30.63-68.04c33.79-58.7,67.59-117.4,101.44-176.08c23.94-41.51,48.03-82.93,71.9-124.48
	c5.18-9,10.36-17.7,19.39-23.63c22.85-15,53.14-8.89,67.24,14.55c14.49,24.1,28.24,48.64,42.33,72.98
	c39.2,67.68,78.49,135.32,117.54,203.09c7.38,12.81,13.65,26.26,20.73,39.26c10.7,19.63-0.94,54.96-30.95,62.15
	c-7.19,1.72-14.83,2.18-22.26,2.2c-55.99,0.17-111.98,0.1-167.97,0.1C303.48,501.22,303.48,501.26,303.48,501.31z M302.97,469.24
	c0,0.02,0,0.04,0,0.06c58.67,0,117.34-0.03,176.01,0.04c6.93,0.01,12.43-2.25,15.83-8.42c3.3-5.99,2.25-11.74-1.09-17.51
	c-49.06-84.88-98.06-169.79-147.06-254.7c-9.4-16.29-18.66-32.67-28.18-48.89c-5.1-8.68-14.27-12.49-21.42-7.98
	c-4.54,2.86-8.35,7.65-11.13,12.38c-16.98,28.83-33.57,57.89-50.28,86.87c-29.51,51.19-59.02,102.38-88.52,153.56
	c-11.31,19.61-22.71,39.17-33.88,58.86c-7.65,13.48-0.7,25.66,14.72,25.68C186.3,469.3,244.64,469.24,302.97,469.24z"/>
<path d="M323.85,255.15c0.31,8.74-0.46,17.66-0.53,23.55c-0.28,22.33-4.7,43.94-6.78,66.02c-0.39,4.11-1.29,8.24-2.57,12.17
	c-2.04,6.23-6.37,9.24-11.74,8.89c-5.17-0.33-9.49-3.61-10.53-9.7c-1.82-10.64-3.26-21.38-4.08-32.13
	c-1.95-25.63-6.78-54.37-2.65-79.9c0.56-3.49,1.43-7.06,3.58-9.87c3.22-4.22,8.76-6.01,14.05-6.48c4.6-0.42,9.57,0.09,13.19,2.96
	C321.7,235.33,323.49,245.12,323.85,255.15z"/>
<path d="M323.48,409.06c0,11.35-8.83,19.75-20.7,19.7c-11.05-0.05-19.3-8.66-19.2-20.04c0.1-11.46,8.64-19.86,20.07-19.74
	C314.92,389.09,323.48,397.77,323.48,409.06z"/>
</svg>
